<svg width="124" height="184" viewBox="0 0 124 184" fill="none" xmlns="http://www.w3.org/2000/svg">
<path d="M40.6718 4.01202C38.3717 1.44312 35.2524 0 32 0C28.7476 0 25.6284 1.44312 23.3282 4.01202L-58.2015 95.0813C-58.7717 95.7183 -59.224 96.4746 -59.5326 97.3069C-59.8412 98.1392 -60 99.0312 -60 99.9321C-60 100.833 -59.8412 101.725 -59.5326 102.557C-59.224 103.39 -58.7717 104.146 -58.2015 104.783C-57.0499 106.069 -55.488 106.792 -53.8594 106.792C-53.053 106.792 -52.2546 106.615 -51.5095 106.27C-50.7645 105.925 -50.0876 105.42 -49.5174 104.783L32 13.6999L113.517 104.783C114.669 106.069 116.231 106.792 117.859 106.792C119.488 106.792 121.05 106.069 122.201 104.783C123.353 103.496 124 101.752 124 99.9321C124 98.1127 123.353 96.3678 122.201 95.0813L93.3282 62.8385V17.7149C93.3282 15.8978 92.6821 14.1551 91.5319 12.8702C90.3818 11.5853 88.8219 10.8635 87.1954 10.8635H74.9297C73.3032 10.8635 71.7433 11.5853 70.5932 12.8702C69.443 14.1551 68.7969 15.8978 68.7969 17.7149V35.4327L40.6718 4.01202Z" fill="black" fill-opacity="0.04"/>
<path d="M31.9999 28.5804L105.594 110.798V168.446C105.594 173.897 103.655 179.125 100.205 182.98C96.7546 186.834 92.0749 189 87.1953 189H-23.1954C-28.075 189 -32.7547 186.834 -36.2051 182.98C-39.6555 179.125 -41.5939 173.897 -41.5939 168.446V110.798L31.9999 28.5804Z" fill="black" fill-opacity="0.04"/>
</svg>
