<svg width="15" height="12" viewBox="0 0 15 12" fill="none" xmlns="http://www.w3.org/2000/svg">
<path d="M9.43928 5.44772C10.2323 4.65361 10.9908 3.89286 11.75 3.13174C12.3999 2.48185 13.0498 1.83296 13.6997 1.18507C13.9123 0.973977 14.1687 0.908739 14.4578 0.993849C14.7469 1.07896 14.919 1.28405 14.9827 1.57388C15.0442 1.85583 14.9366 2.08716 14.7394 2.28626C13.838 3.1871 12.9374 4.0882 12.0376 4.98955C11.3705 5.65644 10.7028 6.32295 10.0347 6.98909C9.66836 7.35278 9.24431 7.35465 8.8795 6.99471C8.37258 6.4948 7.86904 5.99113 7.36887 5.48372C7.31226 5.42673 7.27664 5.34912 7.23652 5.28913L3.02373 9.50567C3.08372 9.50942 3.14146 9.51579 3.19958 9.51617C3.687 9.51617 4.17441 9.51129 4.66183 9.51916C4.9839 9.52404 5.22649 9.68039 5.35884 9.97321C5.48519 10.2529 5.4432 10.5244 5.24636 10.7628C5.17575 10.8512 5.08578 10.9222 4.98339 10.9703C4.88101 11.0184 4.76894 11.0423 4.65583 11.0403C3.48903 11.0429 2.31923 11.0452 1.15092 11.0392C0.709622 11.0369 0.383051 10.7017 0.381551 10.2612C0.377802 9.09886 0.377802 7.93656 0.381551 6.77425C0.381551 6.33258 0.727618 5.98688 1.1468 5.99063C1.56598 5.99438 1.88917 6.32433 1.89667 6.76713C1.9038 7.2418 1.89855 7.71684 1.89855 8.19189V8.38873L1.96678 8.43297C2.00921 8.36616 2.05659 8.30262 2.10851 8.24288C3.60026 6.74838 5.09313 5.25501 6.58713 3.76276C6.97594 3.3747 7.39625 3.37395 7.78355 3.75938C8.29222 4.2658 8.80001 4.77384 9.30692 5.2835C9.35042 5.32737 9.38529 5.38136 9.43928 5.44772Z" fill="#FF718B"/>
</svg>
