<svg width="13" height="10" viewBox="0 0 13 10" fill="none" xmlns="http://www.w3.org/2000/svg">
<path d="M5.06074 5.54332C4.36589 6.2591 3.70127 6.94481 3.03599 7.63085C2.46653 8.21663 1.89707 8.80152 1.32761 9.3855C1.14134 9.57576 0.91662 9.63457 0.663321 9.55785C0.410022 9.48114 0.259225 9.29628 0.203375 9.03504C0.149495 8.7809 0.243784 8.57238 0.416593 8.39293C1.20639 7.58094 1.99552 6.76873 2.784 5.95629C3.36857 5.35519 3.95358 4.75442 4.53902 4.15399C4.86 3.82618 5.23157 3.82449 5.55123 4.14893C5.99541 4.59953 6.43663 5.05351 6.87489 5.51087C6.9245 5.56224 6.95571 5.6322 6.99087 5.68627L10.6823 1.88566C10.6297 1.88228 10.5791 1.87653 10.5282 1.8762C10.1011 1.8762 9.674 1.88059 9.2469 1.87349C8.96469 1.8691 8.75213 1.72817 8.63616 1.46423C8.52544 1.21212 8.56224 0.967442 8.73472 0.752505C8.79659 0.672843 8.87543 0.608865 8.96514 0.565505C9.05485 0.522145 9.15305 0.500562 9.25216 0.50242C10.2746 0.500054 11.2996 0.498027 12.3233 0.503434C12.71 0.505462 12.9961 0.807591 12.9974 1.20468C13.0007 2.25234 13.0007 3.29999 12.9974 4.34764C12.9974 4.74575 12.6942 5.05734 12.3269 5.05396C11.9596 5.05058 11.6764 4.75318 11.6698 4.35406C11.6636 3.92621 11.6682 3.49803 11.6682 3.06984V2.89242L11.6084 2.85254C11.5712 2.91276 11.5297 2.97004 11.4842 3.02388C10.1771 4.37096 8.86898 5.71702 7.55989 7.06207C7.2192 7.41186 6.85091 7.41253 6.51154 7.06512C6.06583 6.60866 5.62088 6.15073 5.17671 5.69134C5.1386 5.6518 5.10804 5.60313 5.06074 5.54332Z" fill="#77DD77"/>
</svg>
